# xmcd
#
# Track frame offsets: 
#        150
#        18199
#        37810
#        59505
#        81079
#        98934
#        120383
#        144639
#        167348
#        182714
#        203812
#        224508
#        245360
#        264655
#        286903
#        314527
#
# Disc length: 4486 seconds
#
# Revision: 0
# Processed by: cddbd v1.5.2PL0 Copyright (c) Steve Scherf et al.
# Submitted via: ExactAudioCopy v1.0b3
#
DISCID=df118410
DTITLE=天童よしみ - 天童よしみ 2016年全曲集
DYEAR=2015
DGENRE=演歌
TTITLE0=いのちの人
TTITLE1=酒きずな
TTITLE2=あんたの花道
TTITLE3=珍島物語
TTITLE4=夜明け
TTITLE5=妻恋酒
TTITLE6=幸せはすぐそこに…
TTITLE7=いのちの春
TTITLE8=なんで泣く
TTITLE9=旅まくら
TTITLE10=道頓堀人情
TTITLE11=ふるさと銀河
TTITLE12=ソーラン祭り節
TTITLE13=人生しみじみ…
TTITLE14=美しい昔（ニュー・バージョン）
TTITLE15=一声一代
EXTD=
EXTT0=
EXTT1=
EXTT2=
EXTT3=
EXTT4=
EXTT5=
EXTT6=
EXTT7=
EXTT8=
EXTT9=
EXTT10=
EXTT11=
EXTT12=
EXTT13=
EXTT14=
EXTT15=
PLAYORDER=
